# xmcd CD database file
#
# Track frame offsets:
#	150
#	11052
#	21301
#	31383
#	41953
#	63120
#	74887
#	87379
#	97251
#	108225
#	118415
#	130009
#	139881
#	150911
#	161853
#	172657
#	184322
#	194196
#	204386
#	214193
#	227580
#	237994
#	249029
#	259781
#
# Disc length: 3611 seconds
#
# Revision: 1
# Processed by: cddbd v1.5.2PL0 Copyright (c) Steve Scherf et al.
# Submitted via: CDex 1.84
#
DISCID=600e1918
DTITLE=Fats Domino - Fats Domino
DYEAR=1998
DGENRE=Blues
TTITLE0=Blueberry Hill.wav
TTITLE1=Be my guest.wav
TTITLE2=I can't go on without you.wav
TTITLE3=I'm gonna be a wheel someday.wav
TTITLE4=Jambalaya.wav
TTITLE5=Red sails in the sunset.wav
TTITLE6=Lazy Lady.wav
TTITLE7=Sally was a good old girl.wav
TTITLE8=Song for Rosemary.wav
TTITLE9=Tell me the truth baby.wav
TTITLE10=The fat man.wav
TTITLE11=When I'm walking.wav
TTITLE12=There goes my heart again.wav
TTITLE13=Kansas City.wav
TTITLE14=Let me be your sweetheart.wav
TTITLE15=Man that's all.wav
TTITLE16=Reelin' and Rockin'
TTITLE17=The girl I'm gonna marry.wav
TTITLE18=Wigs.wav
TTITLE19=Heartbreak hill.wav
TTITLE20=Just a lonely man.wav
TTITLE21=I got a right to cry.wav
TTITLE22=Bye baby bye, bye.wav
TTITLE23=If you don't know what love is.wav
EXTD=YEAR: 1998
EXTT0=
EXTT1=
EXTT2=
EXTT3=
EXTT4=
EXTT5=
EXTT6=
EXTT7=
EXTT8=
EXTT9=
EXTT10=
EXTT11=
EXTT12=
EXTT13=
EXTT14=
EXTT15=
EXTT16=
EXTT17=
EXTT18=
EXTT19=
EXTT20=
EXTT21=
EXTT22=
EXTT23=
PLAYORDER=
